<?xml version="1.0" encoding="UTF-8" standalone="no"?>
<!-- Created with Inkscape (http://www.inkscape.org/) -->

<svg
   xmlns:dc="http://purl.org/dc/elements/1.1/"
   xmlns:cc="http://creativecommons.org/ns#"
   xmlns:rdf="http://www.w3.org/1999/02/22-rdf-syntax-ns#"
   xmlns:svg="http://www.w3.org/2000/svg"
   xmlns="http://www.w3.org/2000/svg"
   xmlns:sodipodi="http://sodipodi.sourceforge.net/DTD/sodipodi-0.dtd"
   xmlns:inkscape="http://www.inkscape.org/namespaces/inkscape"
   width="80"
   height="100"
   id="svg2"
   version="1.1"
   inkscape:version="0.48.4 r9939"
   sodipodi:docname="fingerprint.icon.svg"
   inkscape:output_extension="org.inkscape.output.svg.inkscape"
   inkscape:export-filename="/home/iris/fingerprint.png"
   inkscape:export-xdpi="90"
   inkscape:export-ydpi="90">
  <defs
     id="defs4">
    <inkscape:perspective
       sodipodi:type="inkscape:persp3d"
       inkscape:vp_x="0 : 526.18109 : 1"
       inkscape:vp_y="0 : 1000 : 0"
       inkscape:vp_z="744.09448 : 526.18109 : 1"
       inkscape:persp3d-origin="372.04724 : 350.78739 : 1"
       id="perspective10" />
    <inkscape:perspective
       id="perspective2824"
       inkscape:persp3d-origin="0.5 : 0.33333333 : 1"
       inkscape:vp_z="1 : 0.5 : 1"
       inkscape:vp_y="0 : 1000 : 0"
       inkscape:vp_x="0 : 0.5 : 1"
       sodipodi:type="inkscape:persp3d" />
    <filter
       id="filter3765"
       inkscape:label="Fancy blur"
       inkscape:menu="Blurs"
       inkscape:menu-tooltip="Smooth colorized contour which allows desaturation and hue rotation"
       color-interpolation-filters="sRGB">
      <feGaussianBlur
         id="feGaussianBlur3767"
         stdDeviation="5"
         result="result1" />
      <feComposite
         id="feComposite3769"
         in2="result1"
         operator="arithmetic"
         k2="2"
         in="result1"
         k1="0"
         k3="0"
         k4="0" />
    </filter>
    <filter
       id="filter3947"
       style="color-interpolation-filters:sRGB;"
       inkscape:label="Drop Shadow">
      <feFlood
         id="feFlood3949"
         flood-opacity="1"
         flood-color="rgb(0,0,0)"
         result="flood" />
      <feComposite
         id="feComposite3951"
         in2="SourceGraphic"
         in="flood"
         operator="in"
         result="composite1" />
      <feGaussianBlur
         id="feGaussianBlur3953"
         in="composite"
         stdDeviation="8"
         result="blur" />
      <feOffset
         id="feOffset3955"
         dx="2"
         dy="2"
         result="offset" />
      <feComposite
         id="feComposite3957"
         in2="offset"
         in="SourceGraphic"
         operator="over"
         result="composite2" />
    </filter>
  </defs>
  <sodipodi:namedview
     id="base"
     pagecolor="#ffffff"
     bordercolor="#666666"
     borderopacity="1.0"
     inkscape:pageopacity="0.0"
     inkscape:pageshadow="2"
     inkscape:zoom="1.979899"
     inkscape:cx="161.15806"
     inkscape:cy="-14.342994"
     inkscape:document-units="px"
     inkscape:current-layer="layer1"
     showgrid="false"
     inkscape:window-width="1366"
     inkscape:window-height="744"
     inkscape:window-x="0"
     inkscape:window-y="24"
     inkscape:window-maximized="1"
     fit-margin-top="0"
     fit-margin-left="0"
     fit-margin-right="0"
     fit-margin-bottom="0" />
  <metadata
     id="metadata7">
    <rdf:RDF>
      <cc:Work
         rdf:about="">
        <dc:format>image/svg+xml</dc:format>
        <dc:type
           rdf:resource="http://purl.org/dc/dcmitype/StillImage" />
        <dc:title></dc:title>
      </cc:Work>
    </rdf:RDF>
  </metadata>
  <g
     inkscape:label="Capa 1"
     inkscape:groupmode="layer"
     id="layer1"
     transform="translate(-112.84455,-738.37263)">
    <path
       inkscape:connector-curvature="0"
       id="path3959"
       d="m 148.50692,903.49553 c -2.83701,-2.18676 -4.62147,-9.09872 -0.50544,-3.34569 0.85475,0.79908 4.00497,3.89456 0.50544,3.34569 z m 6.14816,-0.70843 c -5.32525,-2.86646 -7.99832,-8.99704 -10.22303,-14.3055 -2.08676,-6.81786 -1.67752,-13.83395 -3.52073,-20.72971 -1.4833,-2.26008 -0.33312,-12.04567 1.89106,-9.33155 -1.70508,8.52563 1.76622,16.91082 2.43566,25.36786 1.84868,5.94703 3.99129,12.03436 8.54881,16.5244 1.19717,0.93246 3.84168,5.14561 0.86823,2.4745 z m 11.37378,-0.31881 c -0.97793,-2.85821 1.80256,-0.1477 0,0 z m -9.79246,-2.99727 c -4.88363,-5.00909 -7.32318,-12.0215 -9.19522,-18.58913 -1.38037,-6.70628 -3.01405,-13.39092 -2.48576,-20.27131 0.25838,-5.74601 1.82238,-13.18177 6.08725,-16.71917 -1.6728,5.76303 -5.47343,12.65974 -4.64282,19.52566 0.31033,6.22332 1.22858,12.06398 3.19053,18.06015 1.8755,6.10733 4.29338,12.14186 8.17178,17.27819 5.35104,1.57705 0.47563,4.90503 -1.12576,0.71561 z m 7.65358,1.79801 c -5.17952,-2.96206 5.36903,-1.05601 0,0 z m 4.86592,-1.01204 c -6.62251,-3.49467 -8.57489,-11.46491 -11.6283,-17.48899 2.33591,-6.26588 6.58509,7.60193 7.3962,10.63424 0.83921,3.59636 6.44569,6.1573 7.37294,7.37155 -1.0476,0.14681 -2.25032,0.15007 -3.14084,-0.5168 z m 7.92193,-0.74155 c 0.16396,-1.40093 1.34134,0.84272 0,0 z m -17.02578,-1.43729 c -4.20309,-4.87079 -5.84034,-11.17737 -7.86532,-17.01423 -0.97581,-5.98166 3.45104,-1.72964 2.66731,1.73797 0.73548,5.51204 7.11142,10.91143 5.85353,15.7512 -0.2185,-0.15831 -0.43701,-0.31662 -0.65552,-0.47494 z m 13.91106,0.15475 c -3.2023,-0.84117 -10.46823,-7.39028 -6.94637,-8.39941 0.77573,3.41779 7.80102,5.56647 6.94637,8.39941 z m 6.89908,0 c -6.02533,-1.83467 -9.64951,-7.57257 -14.39921,-11.25888 4.7002,-0.26785 9.15093,7.03648 14.10294,9.45694 0.74394,0.52801 2.5801,3.41386 0.29627,1.80194 z m -37.2851,-2.02965 c -2.75202,-8.16049 6.36601,2.70302 0,0 z m 40.38902,-0.75347 c -3.05062,-0.75624 -11.28666,-6.43244 -7.5471,-7.31646 3.08777,2.10907 8.19686,6.04775 9.48754,7.77402 -0.65702,0.16469 -1.47531,0.1094 -1.94044,-0.45756 z m -44.08087,0.0175 c 0.37847,-1.50129 1.44554,1.12651 0,0 z m -1.71863,-1.74903 c -3.3719,-5.06082 -4.16157,-11.38174 -3.35404,-17.18789 -0.48826,-5.61217 2.39976,-10.68701 2.32157,-16.30447 1.99656,-5.83143 2.04357,-12.3183 5.32954,-17.74466 1.8651,-3.33813 4.67754,-7.2215 8.65387,-6.72538 -0.69423,-4.32393 3.65181,-0.47318 5.42853,-4.55204 6.3295,-3.88044 13.67337,-5.44 20.88524,-6.7566 10.28412,2.42869 17.84797,10.30147 23.80167,18.58184 4.82575,4.98343 7.37048,11.72929 12.43084,16.5003 2.07135,2.84223 0.14976,7.30361 -1.80782,2.1435 -3.52572,-5.03385 -8.6491,-9.19286 -10.98136,-14.84205 -3.58522,-5.90037 -7.8927,-10.84036 -12.89346,-15.50034 -5.77641,-3.97804 -13.39795,-6.35826 -20.14906,-3.18154 -8.29349,2.11271 -15.61246,7.35295 -19.8145,14.85798 -3.99267,1.77379 5.15739,-9.24475 -1.27725,-3.77385 -4.51088,4.5968 -4.94063,11.5177 -6.96352,17.33809 -0.71633,6.83899 -3.03155,12.8004 -3.26297,19.51277 -0.28317,6.23215 1.35552,12.54442 3.40009,18.20252 l -0.53998,0.0599 -1.20726,-0.62805 -1.3e-4,0 z m 51.62852,0.73516 c -5.90886,-2.98118 -10.95107,-7.43838 -15.38473,-12.17963 -2.88685,-3.37243 2.17271,-8.1976 2.90209,-2.46055 2.91617,6.82992 10.77314,8.84216 14.51644,14.62632 l -0.55687,0.20436 -1.47693,-0.1905 0,0 z m 6.04848,-1.69078 c -1.30239,-4.32434 4.53788,0.53586 0,0 z m -52.89088,-2.0357 c -0.55929,-1.61847 1.60066,0.54111 0,0 z m 47.27086,-1.73764 c -5.35174,-3.16544 -9.78883,-7.59262 -12.28668,-13.30313 -3.63344,-6.76876 -5.87435,-14.80958 -5.69535,-22.67892 2.72322,-2.01813 1.86405,6.79106 3.38664,8.55698 0.57687,6.50031 3.79943,10.36584 5.93823,16.46319 3.49044,3.90516 8.99362,8.84226 13.39634,12.31167 -1.40083,1.77765 -3.7354,0.0243 -4.73918,-1.34979 z m -49.77988,0.17037 c -2.37643,-6.01251 -1.03861,-12.66203 -1.46084,-18.94906 2.80164,-1.01829 0.43411,8.36067 2.29201,11.34905 -0.62345,1.75439 4.06322,10.89628 -0.83117,7.60001 z m 58.25574,0.25179 c -5.24744,-3.39788 -10.11807,-6.94862 -13.47806,-11.69013 -3.19989,-5.77991 -6.72618,-11.81823 -7.91262,-18.39314 5.0268,-1.0594 2.78599,10.06509 7.76272,11.47224 1.4667,6.95432 8.19292,13.47665 14.81296,16.68624 2.44446,1.41028 1.45672,3.33897 -1.185,1.92479 z m -25.54969,-1.79677 c -4.51619,-2.03447 -9.36552,-11.49452 -5.47852,-14.29458 2.90944,3.99634 1.79219,10.04507 6.91066,12.87294 -0.0195,0.40951 -0.96468,2.64464 -1.43214,1.42164 z m -41.8424,-0.68979 c -1.86777,-5.48288 0.88609,-11.33294 0.27242,-16.86419 -0.23908,-6.85206 2.37653,-13.52599 4.45436,-20.2189 1.91287,-4.65988 -0.91187,-4.82134 -2.03797,-0.52383 -1.70828,5.32953 -3.6446,10.49198 -4.46525,16.16511 -3.05392,3.83215 3.85569,9.40499 -1.98182,12.43724 -6.20718,-6.14064 2.46638,-14.47015 2.85194,-21.64548 1.25722,-5.81865 3.12043,-11.90102 8.45211,-15.23465 2.22675,-2.50991 7.42156,-9.26892 8.99858,-7.75757 -4.94845,5.32393 -10.57682,10.44382 -10.85999,18.24792 -1.63333,7.05056 -3.97221,13.80622 -3.99321,21.40868 -0.36012,4.6793 -0.13724,9.5129 -1.69117,13.98567 z m -2.9926,-12.29929 c 1.62198,-4.86366 -5.15027,2.20137 0,0 z m 36.16498,10.19236 c -3.71153,-4.84988 -4.0963,-10.88423 -3.84828,-16.67593 -0.71607,-3.22076 0.38544,-14.16426 1.25599,-5.4343 0.4649,6.33633 0.67963,13.56396 3.97406,18.85047 1.05805,1.04491 0.7267,6.99064 -1.38177,3.25976 z m 37.11874,1.00029 c 1.80514,-5.5904 -7.07994,-9.05877 -8.74192,-14.41013 -3.19378,-5.16711 -6.43249,-10.04691 -7.95497,-15.9442 -2.79464,-4.60621 -7.3391,-13.66313 -13.7915,-9.38267 -6.54198,4.09717 -4.81453,12.74805 -4.52805,19.24706 1.50973,2.57802 1.10264,9.31991 -1.87969,4.50552 -0.12548,-6.14044 -1.06921,-12.43374 0.26778,-18.50982 1.58435,-4.93005 7.57387,-10.35689 12.98683,-7.96652 6.31345,5.02881 9.17959,12.82172 12.56915,19.89954 3.35024,6.09421 6.86953,12.00586 11.69837,17.09795 2.47087,1.28037 3.10179,6.2531 -0.626,5.46327 z m -3.02553,-1.24792 c -9.11774,-5.97978 -13.1555,-16.77309 -17.36184,-26.33881 -0.72102,-5.13892 -7.73354,-13.66508 -10.79128,-5.42819 -1.68555,6.77676 2.07989,13.06609 2.01382,19.46808 -3.38651,1.19015 -2.35494,-8.28812 -3.90809,-11.08488 -1.16495,-5.60304 1.24055,-17.00657 8.92127,-12.78173 5.66709,4.70772 5.98068,12.5944 10.01393,18.41738 3.21249,6.82236 7.88241,13.02818 13.55462,17.93198 -0.45193,0.76533 -1.8221,-0.21852 -2.44243,-0.18383 z m 7.20996,-4.50768 c -3.8596,-5.16976 -9.18288,-9.21976 -11.63206,-15.37947 -4.29121,-6.49081 -6.28048,-14.45203 -11.64377,-20.18937 -4.37628,-2.93222 -10.72641,-9.40038 -15.83046,-4.30474 -4.40719,1.84842 -8.5669,10.38846 -10.76875,10.45211 1.44128,-6.43478 7.33694,-11.43067 13.17906,-13.92565 6.08179,-1.39568 10.51574,3.99477 15.3539,6.62363 8.46234,9.40304 10.53671,23.16249 20.09664,31.81344 0.63121,1.19436 6.58182,8.62438 1.24544,4.91005 z m -77.67348,0.56493 c 0.75898,-1.10841 0.64596,1.44828 0,0 z m -0.88554,-0.61145 c -0.16451,-2.18711 1.52789,1.1943 0,0 z m 29.37633,-0.14719 c -2.87573,-6.02762 -4.23343,-12.56009 -3.94643,-19.32932 -1.79114,-3.44128 4.91615,-11.9845 2.51844,-4.4064 -1.25251,5.29906 -1.15142,11.26054 -0.1135,16.49953 5.62211,2.01031 -2.10777,-11.39539 3.09875,-9.5672 0.011,4.57073 0.69365,10.71902 0.23938,14.46916 1.58763,1.36681 -0.53191,2.36557 -1.79664,2.33423 z m -6.30501,-3.34555 c -1.24928,-7.01158 -2.68456,-14.25428 -1.12543,-21.46182 2.24531,-7.8206 7.3308,-15.02255 14.03373,-19.5873 5.35825,-2.7102 12.03257,-5.48976 17.58043,-1.54233 3.31904,1.68008 9.57989,7.57299 7.2726,10.18545 -2.94633,-3.57548 -7.76457,-6.14197 -11.25038,-7.77385 2.41639,-0.1152 6.96655,1.16967 2.11673,-1.39492 -4.63027,-2.1329 -10.07778,-0.68453 -14.28607,1.93756 -4.75321,2.18842 -7.9401,6.98837 -10.56936,11.40919 -4.38355,5.23295 -3.73898,13.4021 -2.88064,20.0282 -0.69021,1.81187 3.4902,11.16073 -0.89161,8.19982 z m 21.52184,-0.0454 c -1.91508,-5.59274 6.85583,0.44349 0.63193,0.51819 -0.21064,-0.17273 -0.42128,-0.34546 -0.63193,-0.51819 z m 35.65344,-1.43769 c -4.1092,-5.49293 -8.12631,-11.09179 -11.75363,-16.80225 -1.46527,-3.40375 -7.18975,-11.25222 -4.84153,-12.81743 4.11082,4.52601 6.30104,10.45858 9.57272,15.87237 2.61493,4.96048 6.8495,8.90527 9.7584,13.61221 -0.66879,0.68399 -1.90214,0.12325 -2.73596,0.1351 z m 4.00856,-1.85128 c -0.31798,-2.19382 1.59225,0.58227 0,0 z m -89.00858,-1.93226 c -1.55378,-4.52142 5.61327,-12.98213 2.51108,-14.42938 -0.96722,3.21573 -5.06215,7.59551 -2.69597,1.37465 4.4369,-3.57227 5.9443,-9.63971 9.45436,-13.42183 -2.30622,7.61282 -5.1354,15.14051 -6.97742,22.92306 -0.48384,1.31588 -0.98076,2.82389 -2.29205,3.5535 z m 88.04777,-1.01205 c -2.56756,-5.4414 -7.71819,-9.29105 -9.88504,-14.70102 -5.21805,-4.39594 -5.89907,-11.69792 -10.93934,-16.26601 -4.37599,-4.67726 -9.53375,-10.06641 -16.58727,-9.27148 -6.6461,1.16958 -14.06684,4.40139 -17.67557,10.28726 -2.32861,3.93825 -5.12311,1.32794 -1.5244,-1.38248 5.05313,-6.67839 13.62811,-9.7277 21.71711,-10.48997 7.65623,1.13951 13.84862,6.16252 18.27222,12.27018 3.99556,5.0332 6.27843,11.16875 10.56846,16.02084 0.54313,4.12735 10.19279,10.19374 6.05383,13.53268 z m -89.09997,-5.89315 c -0.41798,-1.67602 1.38958,0.4047 0,0 z m 35.70779,-4.55796 c -0.55857,-2.22875 1.48021,-11.98456 1.75494,-4.84541 -0.23314,0.96176 -0.12231,5.99669 -1.75494,4.84541 z m 58.46186,-2.30914 c -6.53951,-8.56856 -13.32072,-16.96289 -20.26284,-25.19188 -5.09225,-4.42283 -10.81054,-9.25702 -17.93805,-9.34449 -5.87439,-2.13837 -12.14965,-1.73598 -17.82744,0.60615 -6.1244,2.33215 -11.7977,5.52092 -16.5916,10.04819 -3.68045,2.12906 -7.78516,10.71977 -10.28975,8.9731 5.79911,-7.71117 13.17028,-14.47275 21.87082,-18.72775 10.19223,-4.03096 21.89403,-4.86038 32.13238,-0.50602 5.1764,2.23037 9.14944,6.69946 13.11609,10.50806 4.92954,4.86621 8.40501,10.78456 12.88586,15.90568 0.068,2.41927 9.15892,8.86774 2.90453,7.72896 z m -38.83716,-0.59554 c -2.35941,-3.22336 -0.52563,-6.59402 0.9791,-1.73639 0.57226,0.62366 0.30792,3.42909 -0.9791,1.73639 z m -56.36803,-1.43075 c 6.55783,-7.84903 9.27943,-18.85601 18.30522,-24.57907 0.97751,3.25019 -8.48509,8.44554 -9.84435,13.72456 -2.21397,3.90448 -3.22205,9.95115 -8.46087,10.85451 z m 21.55796,0.1003 c -0.95588,-4.56594 4.87578,0.85219 0,0 z m 19.65458,-1.1555 c -2.16985,-2.8119 3.76015,-13.12254 3.70818,-7.9298 -1.56171,2.48465 -1.81416,5.64531 -3.70818,7.9298 z m -18.64254,-1.88063 c 0.15605,-3.21162 4.76137,-11.89646 2.61663,-3.99122 -0.46819,1.32616 -0.54287,4.25054 -2.61663,3.99122 z m 73.88433,-1.55299 c -7.1123,-9.90858 -14.80364,-19.8407 -24.80624,-26.98317 -8.36663,-5.20388 -18.85222,-6.99083 -28.35304,-4.323 -3.47627,0.76718 -7.35734,-0.31816 -1.96828,-1.24162 5.83666,-0.4625 11.53538,-2.403 17.40775,-1.35663 9.70794,1.73537 18.97215,7.04745 25.00763,14.92154 5.13451,5.72091 10.51843,11.33709 14.69044,17.80315 1.3087,1.88847 -1.02798,1.86582 -1.97826,1.17973 z m -96.00169,-0.32751 c 0.0323,-6.39973 5.60418,-11.2417 8.82052,-16.35841 5.94267,-7.65815 13.5946,-14.08623 22.36405,-18.22622 4.20035,0.37365 -5.51559,4.98913 -7.84834,6.47602 -5.04381,3.18092 -8.23441,8.44886 -13.01214,11.94493 -2.74946,4.94482 -6.71783,9.21623 -8.57333,14.60087 -0.16892,0.71731 -0.83032,1.78959 -1.75076,1.56281 z m 38.20464,-0.5975 c -1.34857,-3.72098 2.93627,2.09482 0,0 z m 60.33361,-4.34168 c -6.45531,-8.79484 -14.01375,-16.9646 -22.65441,-23.63871 -5.61517,-2.71397 -11.04571,-6.64888 -17.54506,-6.82148 -4.13824,-2.69615 -9.72607,2.38352 -12.42219,-0.32128 5.15866,-3.98894 12.27346,-1.49553 18.35905,-0.22085 7.38179,2.61946 14.841,5.90867 20.16024,11.91903 6.31633,4.50006 9.67573,11.92482 15.16755,17.24262 0.79421,0.85769 0.429,2.56234 -1.06518,1.84067 z m -99.9389,-2.0237 c -1.01644,-3.25439 7.95348,-11.04226 4.12512,-4.87955 -1.6707,1.30021 -1.3878,5.14807 -4.12512,4.87955 z m 46.92657,-0.66561 c 1.63557,-3.23458 11.03054,-3.1193 3.86003,-0.44 -0.92023,0.31543 -3.78919,2.77479 -3.86003,0.44 z m 54.03384,-2.19235 c -2.21785,-4.47087 -8.1076,-10.1821 -9.24093,-12.94193 4.83991,1.43545 9.95305,6.29877 12.76087,9.50601 -2.10233,-1.75521 -7.92565,-3.5207 -3.52552,0.48124 1.28352,1.34197 4.26509,6.16008 0.006,2.95468 z m -101.47901,-3.55017 c -2.84732,-3.57838 8.25273,-8.51307 3.07434,-3.02657 -0.69765,0.97858 -1.16553,5.01344 -3.07434,3.02657 z m 6.72646,-2.21612 c -1.57079,-3.24531 6.02248,-5.86378 1.98993,-1.23153 -0.33607,0.6488 -1.10336,1.845 -1.98993,1.23153 z m 96.96639,-2.85757 c -7.40191,-4.42289 -11.38274,-12.60633 -18.85045,-16.9483 -4.41763,-4.14808 -9.49699,-6.85953 -15.29324,-8.59611 -6.65427,-2.53277 -13.7403,-3.15978 -20.82061,-2.76362 -5.77442,0.0371 -11.77862,1.01917 -17.21688,2.18327 -8.76881,3.0698 -15.32459,9.88886 -22.73294,15.19376 -5.38951,1.12919 3.40546,-5.45412 5.39455,-6.3681 4.81291,-4.91792 11.32449,-7.74315 17.36679,-10.73452 6.02307,-0.40775 11.91301,-1.54971 17.90163,-2.28816 5.86873,-0.89862 11.31063,1.12988 17.02782,1.85769 5.19544,1.5182 10.51648,2.93374 14.78272,6.59375 5.90854,3.00226 10.35199,7.9805 15.42207,12.11082 -0.3316,3.99863 12.2067,8.602 7.01854,9.75952 l 0,0 z m -73.84314,-0.17482 c 3.1544,-4.23956 8.96538,-4.84957 13.33244,-7.32738 2.78546,-2.50203 14.55535,-1.78525 6.08553,0.004 -6.77425,0.74507 -12.28297,5.07304 -18.59872,7.16922 l -0.81925,0.15467 0,0 z m -31.27848,-1.13746 c 1.66124,-4.35212 2.90444,1.45278 0,0 z m 6.38415,-0.35836 c 2.28349,-7.60825 10.29099,-11.06832 16.05158,-15.68453 5.39169,-5.40165 12.9605,-8.04508 20.51648,-8.09531 7.70377,-2.20048 15.91741,-1.3306 23.53397,0.7284 2.58505,1.01405 12.18919,2.65326 10.1113,4.90192 -5.4082,-1.36899 -10.48856,-4.05294 -16.08361,-4.53436 -6.65759,-2.45695 -13.6291,-0.83973 -20.23821,0.76093 -10.41964,1.00179 -18.28834,8.43733 -26.26466,14.39361 -2.5819,2.37565 -3.9371,6.673 -7.62685,7.52934 z m 5.24998,-1.03819 c 3.36176,-6.08184 9.92157,-9.23449 14.98954,-13.66471 7.7766,-4.91237 17.07113,-6.94798 26.16911,-7.23099 5.80665,-0.19243 11.35768,1.67824 16.78021,3.16969 3.53613,0.40808 8.90335,5.29954 10.79099,4.10977 -4.9452,-7.04594 6.96634,3.2518 8.87295,5.16781 3.30506,1.34111 6.95083,7.68747 1.1898,4.87878 -3.71365,-5.35698 -9.22481,-8.20606 -15.27235,-10.1739 -9.48611,-5.24497 -20.73795,-5.65838 -31.29968,-4.76173 -9.04055,1.17421 -17.06117,6.11279 -23.51574,12.35857 -3.90858,0.15758 -5.01969,6.63395 -8.70483,6.14671 z m 10.79512,0.51607 c 2.44866,-5.67635 10.40008,-7.48088 14.01404,-10.98711 0.26482,3.3237 4.99951,0.91492 0.38643,2.81713 -5.62632,1.31472 -9.34619,6.7344 -14.40047,8.16998 z m -20.66255,-1.49536 c 2.19791,-6.29272 5.09589,3.60716 0,0 z M 222.715,825.87181 c -5.82894,-4.98273 -13.39425,-11.3915 -17.63399,-16.12449 6.72482,-0.26531 10.26739,7.54074 15.01032,11.49522 2.01806,0.47438 8.3847,8.68776 2.62367,4.62927 z m -104.70431,0.0843 c -2.13226,-3.64761 6.71314,-4.25688 1.31088,-0.87821 l -0.60421,0.4208 -0.70667,0.45741 z m 5.07183,-0.74742 c -1.1379,-4.1414 3.96971,0.44159 0,0 z m -2.20438,-3.64604 c -3.98362,-3.54192 6.99662,-6.36913 8.21257,-10.25567 2.77874,-3.25797 7.78912,-2.03922 2.58127,1.33347 -4.27786,1.69833 -8.82695,8.01635 -10.79384,8.9222 z m 103.75681,-0.62459 c -4.81915,-3.79835 -8.45926,-8.88886 -13.54197,-12.39366 -3.52011,-5.2495 -9.47556,-6.68603 -14.64196,-9.56971 -3.30027,-3.66318 -11.66763,-2.69478 -12.82856,-6.63568 6.07288,0.8151 11.66218,3.52834 17.01513,6.38973 7.56068,3.67292 13.64008,9.68689 19.91548,15.14048 1.20743,0.54414 9.17444,11.49481 4.08188,7.06884 z m -70.35938,-2.70602 c 1.87909,-2.99657 12.11776,-2.96639 9.82189,-2.03582 -3.34383,0.35385 -6.35116,2.77205 -9.82189,2.03582 z m -36.05404,-1.97468 c 0.68956,-2.14301 2.305,1.08978 0,0 z m 1.64457,-1.4616 c -0.14984,-3.74977 11.48944,-7.73379 5.11686,-2.88462 -1.59098,0.49033 -3.60226,3.90117 -5.11686,2.88462 z m 34.40947,0.46259 c 2.86977,-2.35903 12.96774,-4.7154 11.76704,-2.37262 -3.79478,1.32003 -7.81826,1.75414 -11.76704,2.37262 z m 70.02074,-1.49596 c -5.14323,-6.71741 -12.49364,-11.38515 -19.70338,-15.60639 -8.86069,-4.66376 -18.82745,-9.86241 -29.12129,-6.92348 -6.1071,1.50384 -12.78862,0.25984 -18.53946,3.26591 -2.5179,0.4061 -11.15899,4.98763 -9.90602,1.82294 6.31545,-2.48417 12.48349,-5.8714 19.45528,-5.84196 6.27054,-0.50598 12.49076,-2.29831 18.78157,-1.71238 6.69181,1.32619 13.16016,3.57178 19.06223,7.03678 6.69829,2.69278 11.88158,7.97592 17.73187,12.01413 1.21117,0.57711 6.1425,7.34976 2.2392,5.94445 z M 119.028,811.28679 c 1.22788,-6.43753 8.85668,-8.34072 13.65232,-11.57604 7.77464,-4.78267 16.1383,-8.5655 24.66584,-11.77646 5.74696,-1.4902 11.90998,-2.36396 17.77136,-1.3543 -2.38955,2.29251 -10.25267,0.89903 -14.72126,2.50082 -10.98084,3.07885 -21.09233,8.70391 -30.8861,14.3878 -3.22784,2.84894 -7.92328,5.24858 -10.48216,7.81818 z m 80.85277,-3.30396 c -3.66437,-5.54376 8.45446,4.609 0.63217,0.63386 -0.21073,-0.21129 -0.42145,-0.42257 -0.63217,-0.63386 z m -72.17134,0.45466 c 3.79448,-4.70627 9.64518,-6.95872 14.81723,-9.63445 6.16361,0.19708 -4.4717,3.86785 -6.28128,5.38623 -2.70186,1.37267 -5.49468,4.49968 -8.53595,4.24822 z m 6.96789,-0.007 c 4.09647,-3.89159 9.76315,-5.44006 14.32704,-8.68218 6.35199,-2.82892 12.85815,-5.46187 19.93063,-5.58911 5.77393,-1.96776 11.22563,-0.0602 16.71685,1.95602 2.58545,0.58919 11.9209,4.38512 4.60013,2.86105 -10.42895,-3.9594 -22.0243,-3.7744 -32.7318,-1.0842 -6.85642,2.68016 -13.1185,6.54588 -19.56833,9.98734 -1.04383,0.38361 -2.15853,0.60937 -3.27452,0.55108 z m 72.35641,-0.26336 c -4.37366,-2.97302 -9.49767,-3.86662 -14.56491,-4.6257 -8.10267,-2.30498 -16.58262,-4.25062 -25.04447,-3.66487 -4.78078,-0.21615 -10.10486,3.33926 -14.37688,2.0083 5.57411,-2.31216 11.7319,-3.39285 17.69663,-3.85216 8.9717,-0.63307 17.47723,2.60127 26.12482,4.40798 1.93178,0.48308 12.98624,4.28717 10.16481,5.72645 z m -88.011,-2.70477 c 1.96964,-6.86864 10.55455,-8.10461 15.84396,-11.60039 9.04301,-3.68564 17.1971,-9.79197 27.14819,-10.96043 2.64421,-1.09455 13.56731,-0.2677 5.3575,1.11773 -5.85658,0.55212 -11.61866,1.6476 -16.95418,4.33415 -7.16046,2.02142 -12.85832,7.16946 -19.79753,9.74882 -4.06205,2.16046 -7.69283,4.88778 -11.59794,7.36012 z m 104.89033,-0.86232 c -6.98856,-4.50135 -14.08413,-8.77246 -21.48853,-12.54421 -5.15518,-2.84621 -11.07642,-3.73418 -16.45511,-5.97464 -4.48734,1.01929 -11.15084,-1.26725 -13.37495,-2.97951 5.93888,-1.22525 12.55759,1.41161 18.5432,2.68075 5.27948,2.04084 10.84944,3.78731 15.65447,6.67075 1.43404,2.0875 9.49083,4.94266 4.85848,0.42136 -9.21755,-5.40298 -19.04547,-10.19033 -29.75249,-11.80877 -11.15427,-1.59097 -22.98114,-1.39953 -33.25554,3.72059 -2.7951,0.62946 -9.7521,6.49809 -10.20664,2.2556 4.63215,-2.30734 10.59638,-4.38704 16.24049,-6.04221 10.36663,-3.48732 21.88909,-4.09821 32.32215,-0.56367 10.02264,2.13933 19.29693,6.72711 27.51104,12.7934 1.98836,5.03584 11.69558,7.46583 10.85948,12.35077 l -0.52963,-0.25431 -0.92642,-0.7259 0,0 z m 0.22994,-6.69975 c -5.25648,-4.07686 -10.26221,-8.46339 -16.05631,-11.77887 -7.50103,-5.37515 -16.78139,-6.7389 -25.45825,-9.21002 -6.7188,-1.14447 -13.82992,-2.11604 -20.53637,-0.32308 -6.23891,1.06786 -12.23079,3.71922 -18.52932,4.84936 -4.81224,2.04581 -10.58202,6.9386 -15.04355,6.85338 5.94047,-4.58985 12.56165,-8.54756 20.04302,-10.40288 6.22232,-2.10416 12.75707,-2.08132 18.9785,-4.24319 5.86695,0.62476 12.03664,0.61588 17.81057,2.09508 11.5686,2.41687 22.9097,7.13531 32.3852,14.37827 2.82079,0.31529 11.13099,10.43995 6.47898,7.85361 l -0.0725,-0.0717 c 0,0 0,0 0,0 z m -105.14154,0.68026 c 3.05444,-5.14927 10.30657,-5.24805 14.66918,-8.91949 4.31795,-3.16612 4.91476,1.40008 0.33306,2.05884 -4.78728,2.97909 -10.15109,3.98385 -15.00224,6.86065 z m 3.0574,-5.76873 c -0.15736,-4.05938 4.5303,1.94376 0,0 z m 3.79167,-2.04583 c 1.05013,-3.54611 3.26304,0.79579 0,0 z m -4.80372,-0.9903 c 0.62391,-3.45689 12.4293,-7.54539 5.77456,-2.46353 -1.58288,1.36973 -3.57344,2.69975 -5.77456,2.46353 z m 101.47388,-0.33735 c -5.64981,-1.93419 -9.37727,-7.19377 -15.08963,-9.12849 -9.9946,-5.25566 -21.2781,-7.10854 -32.39767,-8.1779 -7.25511,-2.02145 -13.99235,1.06556 -21.1779,1.22414 -6.26336,1.62584 -12.1507,4.48891 -18.33204,6.37472 -0.31561,-4.35989 9.08082,-3.62759 12.37056,-6.64697 5.05954,-2.33211 11.13395,-0.2731 16.21851,-2.92765 5.42712,-1.26058 10.84941,0.17305 16.21633,0.49828 5.34109,2.70219 11.17805,1.83968 16.81669,3.07184 8.29563,2.52097 16.05964,6.81136 22.53791,12.5159 7.72209,3.56872 -4.57146,-6.16569 -6.77876,-8.13325 -6.15595,-5.48053 -14.49972,-6.87754 -22.16213,-8.83924 -8.57796,0.58135 -17.1426,-4.06364 -25.57335,-0.91487 -2.8007,-1.63373 -11.62921,4.45811 -10.32319,0.35926 6.07084,-2.37691 12.78858,-3.01623 19.26096,-3.14941 6.3855,0.30076 12.27988,3.05573 18.75664,2.62406 9.05797,0.0753 17.2189,4.64183 23.73034,10.62426 2.17909,0.72124 13.76952,12.95905 5.92673,10.62532 z m -99.44979,-5.4819 c 2.63657,-5.82759 15.7971,-5.8201 5.10996,-1.58865 -1.68065,0.60189 -3.41945,1.01783 -5.10996,1.58865 z m 6.66699,-0.13651 c 3.56019,-4.35847 5.74038,2.21631 0,0 z m -7.84771,-2.93662 c 1.77157,-3.92878 3.0544,1.49499 0,0 z m 99.942,-0.92959 c -0.88881,-4.75022 4.57889,1.37347 0,0 z m -96.85526,-0.93942 c 3.3435,-5.55674 11.50946,-6.1527 16.32143,-10.049 0.58926,0.88107 -1.01576,4.26685 -2.26178,5.01897 -4.11696,-0.75895 -10.04849,3.94894 -14.05965,5.03003 z m 93.99675,-0.86545 c -1.88647,-6.05755 -9.33043,-7.00517 -13.72988,-10.66307 -5.40629,-1.58786 -10.52284,-3.81537 -15.57945,-6.27182 -5.65091,-2.12455 -11.79448,-1.75403 -17.67744,-2.81286 -5.79774,0.73866 -11.5865,1.10574 -17.32746,2.67664 -6.76064,1.68819 -13.35682,4.57939 -19.0954,8.3186 -4.13301,-3.37286 7.62059,-5.53058 10.52437,-7.58568 6.4941,-2.12941 12.99618,-4.40964 19.91671,-4.77028 7.02436,-1.10631 13.98598,0.39049 20.878,1.37197 9.56428,3.22127 19.05423,6.96056 27.64821,12.30361 2.41995,0.39562 10.92901,8.05869 4.44234,7.43289 z m -76.49244,-5.26794 c 0.73961,-4.63088 9.17486,-0.59959 2.17668,-0.68631 -0.844,-0.37353 -1.5062,1.74117 -2.17668,0.68631 z m -14.45553,-0.56186 c -1.63792,-5.75738 10.03356,-1.87334 2.11283,-0.7981 -0.62626,0.3584 -1.29325,1.41765 -2.11283,0.7981 z m 16.55112,-3.03724 c 3.06298,-3.91891 9.9905,-5.44552 14.57126,-6.05993 -0.36947,3.58691 -8.21374,2.72386 -11.14602,5.92227 -1.09782,0.3684 -2.30219,0.44299 -3.42524,0.13766 z m 70.70193,-1.84873 c -7.90317,-4.15475 -16.04993,-7.78164 -24.55458,-10.53367 -5.85167,-2.31476 -12.4763,-2.21185 -18.70377,-2.54683 -6.20708,1.08403 -12.66274,-0.0311 -18.66152,1.97814 -3.48827,0.55807 -12.65795,6.59428 -13.11429,2.5858 5.86151,-1.10053 10.62916,-5.56427 16.80874,-5.5819 6.70675,-0.67893 13.44184,-0.8098 20.11081,-1.34547 5.74008,0.43977 11.14004,1.21375 16.30964,3.79661 6.46219,2.17326 12.54205,5.40157 19.11925,7.24173 0.58553,1.09673 8.52231,6.28105 2.68572,4.40559 z m -85.99385,-0.68062 c 0.31843,-4.5265 13.45201,-7.74126 6.06301,-2.52667 -1.90751,1.09357 -3.99192,1.81562 -6.06301,2.52667 z m 62.98661,-0.75595 c -8.15,-1.83882 -16.43992,-3.01784 -24.81042,-2.37208 -2.98217,0.56992 -8.11536,-1.30774 -2.27582,-1.82241 6.87898,-0.32217 13.9442,-0.62931 20.73903,0.62701 1.1196,-0.17064 10.86607,3.82811 6.34721,3.56748 z m 16.5866,-6.91947 c -6.60037,-3.60687 -13.91109,-5.47333 -20.89994,-8.11737 -2.84676,-0.42279 -14.62652,-1.43435 -6.18348,-2.63673 7.41638,0.14782 13.99945,4.19315 21.10405,5.91228 1.66266,-0.0577 13.77856,6.78686 5.97937,4.84182 z m -72.07527,-1.53968 c 2.98718,-4.5363 9.18912,-5.01852 13.65346,-7.48764 6.00727,-0.86883 12.49374,-4.14611 18.09455,-2.92737 -6.63127,3.43009 -13.99815,3.24746 -20.69308,6.00773 -3.62781,1.6104 -7.19253,3.40102 -11.05493,4.40728 z m 30.27805,-6.03725 c 1.49239,-4.19349 4.95367,1.70878 0,0 z m 7.84868,-2.77447 c -0.41797,-1.67601 1.38959,0.4047 0,0 z m -3.17626,-0.74759 c 0.90612,-3.03155 0.99397,2.44649 0,0 z m -0.87473,-2.2931 c 0.16396,-1.40092 1.34134,0.84273 0,0 z"
       style="fill:#33ee33;fill-opacity:1;filter:url(#filter3947)" />
    <path
       style="fill:#33ee33;fill-opacity:1;filter:url(#filter3947)"
       d="m 148.50692,903.49553 c -2.83701,-2.18676 -4.62147,-9.09872 -0.50544,-3.34569 0.85475,0.79908 4.00497,3.89456 0.50544,3.34569 z m 6.14816,-0.70843 c -5.32525,-2.86646 -7.99832,-8.99704 -10.22303,-14.3055 -2.08676,-6.81786 -1.67752,-13.83395 -3.52073,-20.72971 -1.4833,-2.26008 -0.33312,-12.04567 1.89106,-9.33155 -1.70508,8.52563 1.76622,16.91082 2.43566,25.36786 1.84868,5.94703 3.99129,12.03436 8.54881,16.5244 1.19717,0.93246 3.84168,5.14561 0.86823,2.4745 z m 11.37378,-0.31881 c -0.97793,-2.85821 1.80256,-0.1477 0,0 z m -9.79246,-2.99727 c -4.88363,-5.00909 -7.32318,-12.0215 -9.19522,-18.58913 -1.38037,-6.70628 -3.01405,-13.39092 -2.48576,-20.27131 0.25838,-5.74601 1.82238,-13.18177 6.08725,-16.71917 -1.6728,5.76303 -5.47343,12.65974 -4.64282,19.52566 0.31033,6.22332 1.22858,12.06398 3.19053,18.06015 1.8755,6.10733 4.29338,12.14186 8.17178,17.27819 5.35104,1.57705 0.47563,4.90503 -1.12576,0.71561 z m 7.65358,1.79801 c -5.17952,-2.96206 5.36903,-1.05601 0,0 z m 4.86592,-1.01204 c -6.62251,-3.49467 -8.57489,-11.46491 -11.6283,-17.48899 2.33591,-6.26588 6.58509,7.60193 7.3962,10.63424 0.83921,3.59636 6.44569,6.1573 7.37294,7.37155 -1.0476,0.14681 -2.25032,0.15007 -3.14084,-0.5168 z m 7.92193,-0.74155 c 0.16396,-1.40093 1.34134,0.84272 0,0 z m -17.02578,-1.43729 c -4.20309,-4.87079 -5.84034,-11.17737 -7.86532,-17.01423 -0.97581,-5.98166 3.45104,-1.72964 2.66731,1.73797 0.73548,5.51204 7.11142,10.91143 5.85353,15.7512 -0.2185,-0.15831 -0.43701,-0.31662 -0.65552,-0.47494 z m 13.91106,0.15475 c -3.2023,-0.84117 -10.46823,-7.39028 -6.94637,-8.39941 0.77573,3.41779 7.80102,5.56647 6.94637,8.39941 z m 6.89908,0 c -6.02533,-1.83467 -9.64951,-7.57257 -14.39921,-11.25888 4.7002,-0.26785 9.15093,7.03648 14.10294,9.45694 0.74394,0.52801 2.5801,3.41386 0.29627,1.80194 z m -37.2851,-2.02965 c -2.75202,-8.16049 6.36601,2.70302 0,0 z m 40.38902,-0.75347 c -3.05062,-0.75624 -11.28666,-6.43244 -7.5471,-7.31646 3.08777,2.10907 8.19686,6.04775 9.48754,7.77402 -0.65702,0.16469 -1.47531,0.1094 -1.94044,-0.45756 z m -44.08087,0.0175 c 0.37847,-1.50129 1.44554,1.12651 0,0 z m -1.71863,-1.74903 c -3.3719,-5.06082 -4.16157,-11.38174 -3.35404,-17.18789 -0.48826,-5.61217 2.39976,-10.68701 2.32157,-16.30447 1.99656,-5.83143 2.04357,-12.3183 5.32954,-17.74466 1.8651,-3.33813 4.67754,-7.2215 8.65387,-6.72538 -0.69423,-4.32393 3.65181,-0.47318 5.42853,-4.55204 6.3295,-3.88044 13.67337,-5.44 20.88524,-6.7566 10.28412,2.42869 17.84797,10.30147 23.80167,18.58184 4.82575,4.98343 7.37048,11.72929 12.43084,16.5003 2.07135,2.84223 0.14976,7.30361 -1.80782,2.1435 -3.52572,-5.03385 -8.6491,-9.19286 -10.98136,-14.84205 -3.58522,-5.90037 -7.8927,-10.84036 -12.89346,-15.50034 -5.77641,-3.97804 -13.39795,-6.35826 -20.14906,-3.18154 -8.29349,2.11271 -15.61246,7.35295 -19.8145,14.85798 -3.99267,1.77379 5.15739,-9.24475 -1.27725,-3.77385 -4.51088,4.5968 -4.94063,11.5177 -6.96352,17.33809 -0.71633,6.83899 -3.03155,12.8004 -3.26297,19.51277 -0.28317,6.23215 1.35552,12.54442 3.40009,18.20252 l -0.53998,0.0599 -1.20726,-0.62805 -1.3e-4,0 z m 51.62852,0.73516 c -5.90886,-2.98118 -10.95107,-7.43838 -15.38473,-12.17963 -2.88685,-3.37243 2.17271,-8.1976 2.90209,-2.46055 2.91617,6.82992 10.77314,8.84216 14.51644,14.62632 l -0.55687,0.20436 -1.47693,-0.1905 0,0 z m 6.04848,-1.69078 c -1.30239,-4.32434 4.53788,0.53586 0,0 z m -52.89088,-2.0357 c -0.55929,-1.61847 1.60066,0.54111 0,0 z m 47.27086,-1.73764 c -5.35174,-3.16544 -9.78883,-7.59262 -12.28668,-13.30313 -3.63344,-6.76876 -5.87435,-14.80958 -5.69535,-22.67892 2.72322,-2.01813 1.86405,6.79106 3.38664,8.55698 0.57687,6.50031 3.79943,10.36584 5.93823,16.46319 3.49044,3.90516 8.99362,8.84226 13.39634,12.31167 -1.40083,1.77765 -3.7354,0.0243 -4.73918,-1.34979 z m -49.77988,0.17037 c -2.37643,-6.01251 -1.03861,-12.66203 -1.46084,-18.94906 2.80164,-1.01829 0.43411,8.36067 2.29201,11.34905 -0.62345,1.75439 4.06322,10.89628 -0.83117,7.60001 z m 58.25574,0.25179 c -5.24744,-3.39788 -10.11807,-6.94862 -13.47806,-11.69013 -3.19989,-5.77991 -6.72618,-11.81823 -7.91262,-18.39314 5.0268,-1.0594 2.78599,10.06509 7.76272,11.47224 1.4667,6.95432 8.19292,13.47665 14.81296,16.68624 2.44446,1.41028 1.45672,3.33897 -1.185,1.92479 z m -25.54969,-1.79677 c -4.51619,-2.03447 -9.36552,-11.49452 -5.47852,-14.29458 2.90944,3.99634 1.79219,10.04507 6.91066,12.87294 -0.0195,0.40951 -0.96468,2.64464 -1.43214,1.42164 z m -41.8424,-0.68979 c -1.86777,-5.48288 0.88609,-11.33294 0.27242,-16.86419 -0.23908,-6.85206 2.37653,-13.52599 4.45436,-20.2189 1.91287,-4.65988 -0.91187,-4.82134 -2.03797,-0.52383 -1.70828,5.32953 -3.6446,10.49198 -4.46525,16.16511 -3.05392,3.83215 3.85569,9.40499 -1.98182,12.43724 -6.20718,-6.14064 2.46638,-14.47015 2.85194,-21.64548 1.25722,-5.81865 3.12043,-11.90102 8.45211,-15.23465 2.22675,-2.50991 7.42156,-9.26892 8.99858,-7.75757 -4.94845,5.32393 -10.57682,10.44382 -10.85999,18.24792 -1.63333,7.05056 -3.97221,13.80622 -3.99321,21.40868 -0.36012,4.6793 -0.13724,9.5129 -1.69117,13.98567 z m -2.9926,-12.29929 c 1.62198,-4.86366 -5.15027,2.20137 0,0 z m 36.16498,10.19236 c -3.71153,-4.84988 -4.0963,-10.88423 -3.84828,-16.67593 -0.71607,-3.22076 0.38544,-14.16426 1.25599,-5.4343 0.4649,6.33633 0.67963,13.56396 3.97406,18.85047 1.05805,1.04491 0.7267,6.99064 -1.38177,3.25976 z m 37.11874,1.00029 c 1.80514,-5.5904 -7.07994,-9.05877 -8.74192,-14.41013 -3.19378,-5.16711 -6.43249,-10.04691 -7.95497,-15.9442 -2.79464,-4.60621 -7.3391,-13.66313 -13.7915,-9.38267 -6.54198,4.09717 -4.81453,12.74805 -4.52805,19.24706 1.50973,2.57802 1.10264,9.31991 -1.87969,4.50552 -0.12548,-6.14044 -1.06921,-12.43374 0.26778,-18.50982 1.58435,-4.93005 7.57387,-10.35689 12.98683,-7.96652 6.31345,5.02881 9.17959,12.82172 12.56915,19.89954 3.35024,6.09421 6.86953,12.00586 11.69837,17.09795 2.47087,1.28037 3.10179,6.2531 -0.626,5.46327 z m -3.02553,-1.24792 c -9.11774,-5.97978 -13.1555,-16.77309 -17.36184,-26.33881 -0.72102,-5.13892 -7.73354,-13.66508 -10.79128,-5.42819 -1.68555,6.77676 2.07989,13.06609 2.01382,19.46808 -3.38651,1.19015 -2.35494,-8.28812 -3.90809,-11.08488 -1.16495,-5.60304 1.24055,-17.00657 8.92127,-12.78173 5.66709,4.70772 5.98068,12.5944 10.01393,18.41738 3.21249,6.82236 7.88241,13.02818 13.55462,17.93198 -0.45193,0.76533 -1.8221,-0.21852 -2.44243,-0.18383 z m 7.20996,-4.50768 c -3.8596,-5.16976 -9.18288,-9.21976 -11.63206,-15.37947 -4.29121,-6.49081 -6.28048,-14.45203 -11.64377,-20.18937 -4.37628,-2.93222 -10.72641,-9.40038 -15.83046,-4.30474 -4.40719,1.84842 -8.5669,10.38846 -10.76875,10.45211 1.44128,-6.43478 7.33694,-11.43067 13.17906,-13.92565 6.08179,-1.39568 10.51574,3.99477 15.3539,6.62363 8.46234,9.40304 10.53671,23.16249 20.09664,31.81344 0.63121,1.19436 6.58182,8.62438 1.24544,4.91005 z m -77.67348,0.56493 c 0.75898,-1.10841 0.64596,1.44828 0,0 z m -0.88554,-0.61145 c -0.16451,-2.18711 1.52789,1.1943 0,0 z m 29.37633,-0.14719 c -2.87573,-6.02762 -4.23343,-12.56009 -3.94643,-19.32932 -1.79114,-3.44128 4.91615,-11.9845 2.51844,-4.4064 -1.25251,5.29906 -1.15142,11.26054 -0.1135,16.49953 5.62211,2.01031 -2.10777,-11.39539 3.09875,-9.5672 0.011,4.57073 0.69365,10.71902 0.23938,14.46916 1.58763,1.36681 -0.53191,2.36557 -1.79664,2.33423 z m -6.30501,-3.34555 c -1.24928,-7.01158 -2.68456,-14.25428 -1.12543,-21.46182 2.24531,-7.8206 7.3308,-15.02255 14.03373,-19.5873 5.35825,-2.7102 12.03257,-5.48976 17.58043,-1.54233 3.31904,1.68008 9.57989,7.57299 7.2726,10.18545 -2.94633,-3.57548 -7.76457,-6.14197 -11.25038,-7.77385 2.41639,-0.1152 6.96655,1.16967 2.11673,-1.39492 -4.63027,-2.1329 -10.07778,-0.68453 -14.28607,1.93756 -4.75321,2.18842 -7.9401,6.98837 -10.56936,11.40919 -4.38355,5.23295 -3.73898,13.4021 -2.88064,20.0282 -0.69021,1.81187 3.4902,11.16073 -0.89161,8.19982 z m 21.52184,-0.0454 c -1.91508,-5.59274 6.85583,0.44349 0.63193,0.51819 -0.21064,-0.17273 -0.42128,-0.34546 -0.63193,-0.51819 z m 35.65344,-1.43769 c -4.1092,-5.49293 -8.12631,-11.09179 -11.75363,-16.80225 -1.46527,-3.40375 -7.18975,-11.25222 -4.84153,-12.81743 4.11082,4.52601 6.30104,10.45858 9.57272,15.87237 2.61493,4.96048 6.8495,8.90527 9.7584,13.61221 -0.66879,0.68399 -1.90214,0.12325 -2.73596,0.1351 z m 4.00856,-1.85128 c -0.31798,-2.19382 1.59225,0.58227 0,0 z m -89.00858,-1.93226 c -1.55378,-4.52142 5.61327,-12.98213 2.51108,-14.42938 -0.96722,3.21573 -5.06215,7.59551 -2.69597,1.37465 4.4369,-3.57227 5.9443,-9.63971 9.45436,-13.42183 -2.30622,7.61282 -5.1354,15.14051 -6.97742,22.92306 -0.48384,1.31588 -0.98076,2.82389 -2.29205,3.5535 z m 88.04777,-1.01205 c -2.56756,-5.4414 -7.71819,-9.29105 -9.88504,-14.70102 -5.21805,-4.39594 -5.89907,-11.69792 -10.93934,-16.26601 -4.37599,-4.67726 -9.53375,-10.06641 -16.58727,-9.27148 -6.6461,1.16958 -14.06684,4.40139 -17.67557,10.28726 -2.32861,3.93825 -5.12311,1.32794 -1.5244,-1.38248 5.05313,-6.67839 13.62811,-9.7277 21.71711,-10.48997 7.65623,1.13951 13.84862,6.16252 18.27222,12.27018 3.99556,5.0332 6.27843,11.16875 10.56846,16.02084 0.54313,4.12735 10.19279,10.19374 6.05383,13.53268 z m -89.09997,-5.89315 c -0.41798,-1.67602 1.38958,0.4047 0,0 z m 35.70779,-4.55796 c -0.55857,-2.22875 1.48021,-11.98456 1.75494,-4.84541 -0.23314,0.96176 -0.12231,5.99669 -1.75494,4.84541 z m 58.46186,-2.30914 c -6.53951,-8.56856 -13.32072,-16.96289 -20.26284,-25.19188 -5.09225,-4.42283 -10.81054,-9.25702 -17.93805,-9.34449 -5.87439,-2.13837 -12.14965,-1.73598 -17.82744,0.60615 -6.1244,2.33215 -11.7977,5.52092 -16.5916,10.04819 -3.68045,2.12906 -7.78516,10.71977 -10.28975,8.9731 5.79911,-7.71117 13.17028,-14.47275 21.87082,-18.72775 10.19223,-4.03096 21.89403,-4.86038 32.13238,-0.50602 5.1764,2.23037 9.14944,6.69946 13.11609,10.50806 4.92954,4.86621 8.40501,10.78456 12.88586,15.90568 0.068,2.41927 9.15892,8.86774 2.90453,7.72896 z m -38.83716,-0.59554 c -2.35941,-3.22336 -0.52563,-6.59402 0.9791,-1.73639 0.57226,0.62366 0.30792,3.42909 -0.9791,1.73639 z m -56.36803,-1.43075 c 6.55783,-7.84903 9.27943,-18.85601 18.30522,-24.57907 0.97751,3.25019 -8.48509,8.44554 -9.84435,13.72456 -2.21397,3.90448 -3.22205,9.95115 -8.46087,10.85451 z m 21.55796,0.1003 c -0.95588,-4.56594 4.87578,0.85219 0,0 z m 19.65458,-1.1555 c -2.16985,-2.8119 3.76015,-13.12254 3.70818,-7.9298 -1.56171,2.48465 -1.81416,5.64531 -3.70818,7.9298 z m -18.64254,-1.88063 c 0.15605,-3.21162 4.76137,-11.89646 2.61663,-3.99122 -0.46819,1.32616 -0.54287,4.25054 -2.61663,3.99122 z m 73.88433,-1.55299 c -7.1123,-9.90858 -14.80364,-19.8407 -24.80624,-26.98317 -8.36663,-5.20388 -18.85222,-6.99083 -28.35304,-4.323 -3.47627,0.76718 -7.35734,-0.31816 -1.96828,-1.24162 5.83666,-0.4625 11.53538,-2.403 17.40775,-1.35663 9.70794,1.73537 18.97215,7.04745 25.00763,14.92154 5.13451,5.72091 10.51843,11.33709 14.69044,17.80315 1.3087,1.88847 -1.02798,1.86582 -1.97826,1.17973 z m -96.00169,-0.32751 c 0.0323,-6.39973 5.60418,-11.2417 8.82052,-16.35841 5.94267,-7.65815 13.5946,-14.08623 22.36405,-18.22622 4.20035,0.37365 -5.51559,4.98913 -7.84834,6.47602 -5.04381,3.18092 -8.23441,8.44886 -13.01214,11.94493 -2.74946,4.94482 -6.71783,9.21623 -8.57333,14.60087 -0.16892,0.71731 -0.83032,1.78959 -1.75076,1.56281 z m 38.20464,-0.5975 c -1.34857,-3.72098 2.93627,2.09482 0,0 z m 60.33361,-4.34168 c -6.45531,-8.79484 -14.01375,-16.9646 -22.65441,-23.63871 -5.61517,-2.71397 -11.04571,-6.64888 -17.54506,-6.82148 -4.13824,-2.69615 -9.72607,2.38352 -12.42219,-0.32128 5.15866,-3.98894 12.27346,-1.49553 18.35905,-0.22085 7.38179,2.61946 14.841,5.90867 20.16024,11.91903 6.31633,4.50006 9.67573,11.92482 15.16755,17.24262 0.79421,0.85769 0.429,2.56234 -1.06518,1.84067 z m -99.9389,-2.0237 c -1.01644,-3.25439 7.95348,-11.04226 4.12512,-4.87955 -1.6707,1.30021 -1.3878,5.14807 -4.12512,4.87955 z m 46.92657,-0.66561 c 1.63557,-3.23458 11.03054,-3.1193 3.86003,-0.44 -0.92023,0.31543 -3.78919,2.77479 -3.86003,0.44 z m 54.03384,-2.19235 c -2.21785,-4.47087 -8.1076,-10.1821 -9.24093,-12.94193 4.83991,1.43545 9.95305,6.29877 12.76087,9.50601 -2.10233,-1.75521 -7.92565,-3.5207 -3.52552,0.48124 1.28352,1.34197 4.26509,6.16008 0.006,2.95468 z m -101.47901,-3.55017 c -2.84732,-3.57838 8.25273,-8.51307 3.07434,-3.02657 -0.69765,0.97858 -1.16553,5.01344 -3.07434,3.02657 z m 6.72646,-2.21612 c -1.57079,-3.24531 6.02248,-5.86378 1.98993,-1.23153 -0.33607,0.6488 -1.10336,1.845 -1.98993,1.23153 z m 96.96639,-2.85757 c -7.40191,-4.42289 -11.38274,-12.60633 -18.85045,-16.9483 -4.41763,-4.14808 -9.49699,-6.85953 -15.29324,-8.59611 -6.65427,-2.53277 -13.7403,-3.15978 -20.82061,-2.76362 -5.77442,0.0371 -11.77862,1.01917 -17.21688,2.18327 -8.76881,3.0698 -15.32459,9.88886 -22.73294,15.19376 -5.38951,1.12919 3.40546,-5.45412 5.39455,-6.3681 4.81291,-4.91792 11.32449,-7.74315 17.36679,-10.73452 6.02307,-0.40775 11.91301,-1.54971 17.90163,-2.28816 5.86873,-0.89862 11.31063,1.12988 17.02782,1.85769 5.19544,1.5182 10.51648,2.93374 14.78272,6.59375 5.90854,3.00226 10.35199,7.9805 15.42207,12.11082 -0.3316,3.99863 12.2067,8.602 7.01854,9.75952 l 0,0 z m -73.84314,-0.17482 c 3.1544,-4.23956 8.96538,-4.84957 13.33244,-7.32738 2.78546,-2.50203 14.55535,-1.78525 6.08553,0.004 -6.77425,0.74507 -12.28297,5.07304 -18.59872,7.16922 l -0.81925,0.15467 0,0 z m -31.27848,-1.13746 c 1.66124,-4.35212 2.90444,1.45278 0,0 z m 6.38415,-0.35836 c 2.28349,-7.60825 10.29099,-11.06832 16.05158,-15.68453 5.39169,-5.40165 12.9605,-8.04508 20.51648,-8.09531 7.70377,-2.20048 15.91741,-1.3306 23.53397,0.7284 2.58505,1.01405 12.18919,2.65326 10.1113,4.90192 -5.4082,-1.36899 -10.48856,-4.05294 -16.08361,-4.53436 -6.65759,-2.45695 -13.6291,-0.83973 -20.23821,0.76093 -10.41964,1.00179 -18.28834,8.43733 -26.26466,14.39361 -2.5819,2.37565 -3.9371,6.673 -7.62685,7.52934 z m 5.24998,-1.03819 c 3.36176,-6.08184 9.92157,-9.23449 14.98954,-13.66471 7.7766,-4.91237 17.07113,-6.94798 26.16911,-7.23099 5.80665,-0.19243 11.35768,1.67824 16.78021,3.16969 3.53613,0.40808 8.90335,5.29954 10.79099,4.10977 -4.9452,-7.04594 6.96634,3.2518 8.87295,5.16781 3.30506,1.34111 6.95083,7.68747 1.1898,4.87878 -3.71365,-5.35698 -9.22481,-8.20606 -15.27235,-10.1739 -9.48611,-5.24497 -20.73795,-5.65838 -31.29968,-4.76173 -9.04055,1.17421 -17.06117,6.11279 -23.51574,12.35857 -3.90858,0.15758 -5.01969,6.63395 -8.70483,6.14671 z m 10.79512,0.51607 c 2.44866,-5.67635 10.40008,-7.48088 14.01404,-10.98711 0.26482,3.3237 4.99951,0.91492 0.38643,2.81713 -5.62632,1.31472 -9.34619,6.7344 -14.40047,8.16998 z m -20.66255,-1.49536 c 2.19791,-6.29272 5.09589,3.60716 0,0 z M 222.715,825.87181 c -5.82894,-4.98273 -13.39425,-11.3915 -17.63399,-16.12449 6.72482,-0.26531 10.26739,7.54074 15.01032,11.49522 2.01806,0.47438 8.3847,8.68776 2.62367,4.62927 z m -104.70431,0.0843 c -2.13226,-3.64761 6.71314,-4.25688 1.31088,-0.87821 l -0.60421,0.4208 -0.70667,0.45741 z m 5.07183,-0.74742 c -1.1379,-4.1414 3.96971,0.44159 0,0 z m -2.20438,-3.64604 c -3.98362,-3.54192 6.99662,-6.36913 8.21257,-10.25567 2.77874,-3.25797 7.78912,-2.03922 2.58127,1.33347 -4.27786,1.69833 -8.82695,8.01635 -10.79384,8.9222 z m 103.75681,-0.62459 c -4.81915,-3.79835 -8.45926,-8.88886 -13.54197,-12.39366 -3.52011,-5.2495 -9.47556,-6.68603 -14.64196,-9.56971 -3.30027,-3.66318 -11.66763,-2.69478 -12.82856,-6.63568 6.07288,0.8151 11.66218,3.52834 17.01513,6.38973 7.56068,3.67292 13.64008,9.68689 19.91548,15.14048 1.20743,0.54414 9.17444,11.49481 4.08188,7.06884 z m -70.35938,-2.70602 c 1.87909,-2.99657 12.11776,-2.96639 9.82189,-2.03582 -3.34383,0.35385 -6.35116,2.77205 -9.82189,2.03582 z m -36.05404,-1.97468 c 0.68956,-2.14301 2.305,1.08978 0,0 z m 1.64457,-1.4616 c -0.14984,-3.74977 11.48944,-7.73379 5.11686,-2.88462 -1.59098,0.49033 -3.60226,3.90117 -5.11686,2.88462 z m 34.40947,0.46259 c 2.86977,-2.35903 12.96774,-4.7154 11.76704,-2.37262 -3.79478,1.32003 -7.81826,1.75414 -11.76704,2.37262 z m 70.02074,-1.49596 c -5.14323,-6.71741 -12.49364,-11.38515 -19.70338,-15.60639 -8.86069,-4.66376 -18.82745,-9.86241 -29.12129,-6.92348 -6.1071,1.50384 -12.78862,0.25984 -18.53946,3.26591 -2.5179,0.4061 -11.15899,4.98763 -9.90602,1.82294 6.31545,-2.48417 12.48349,-5.8714 19.45528,-5.84196 6.27054,-0.50598 12.49076,-2.29831 18.78157,-1.71238 6.69181,1.32619 13.16016,3.57178 19.06223,7.03678 6.69829,2.69278 11.88158,7.97592 17.73187,12.01413 1.21117,0.57711 6.1425,7.34976 2.2392,5.94445 z M 119.028,811.28679 c 1.22788,-6.43753 8.85668,-8.34072 13.65232,-11.57604 7.77464,-4.78267 16.1383,-8.5655 24.66584,-11.77646 5.74696,-1.4902 11.90998,-2.36396 17.77136,-1.3543 -2.38955,2.29251 -10.25267,0.89903 -14.72126,2.50082 -10.98084,3.07885 -21.09233,8.70391 -30.8861,14.3878 -3.22784,2.84894 -7.92328,5.24858 -10.48216,7.81818 z m 80.85277,-3.30396 c -3.66437,-5.54376 8.45446,4.609 0.63217,0.63386 -0.21073,-0.21129 -0.42145,-0.42257 -0.63217,-0.63386 z m -72.17134,0.45466 c 3.79448,-4.70627 9.64518,-6.95872 14.81723,-9.63445 6.16361,0.19708 -4.4717,3.86785 -6.28128,5.38623 -2.70186,1.37267 -5.49468,4.49968 -8.53595,4.24822 z m 6.96789,-0.007 c 4.09647,-3.89159 9.76315,-5.44006 14.32704,-8.68218 6.35199,-2.82892 12.85815,-5.46187 19.93063,-5.58911 5.77393,-1.96776 11.22563,-0.0602 16.71685,1.95602 2.58545,0.58919 11.9209,4.38512 4.60013,2.86105 -10.42895,-3.9594 -22.0243,-3.7744 -32.7318,-1.0842 -6.85642,2.68016 -13.1185,6.54588 -19.56833,9.98734 -1.04383,0.38361 -2.15853,0.60937 -3.27452,0.55108 z m 72.35641,-0.26336 c -4.37366,-2.97302 -9.49767,-3.86662 -14.56491,-4.6257 -8.10267,-2.30498 -16.58262,-4.25062 -25.04447,-3.66487 -4.78078,-0.21615 -10.10486,3.33926 -14.37688,2.0083 5.57411,-2.31216 11.7319,-3.39285 17.69663,-3.85216 8.9717,-0.63307 17.47723,2.60127 26.12482,4.40798 1.93178,0.48308 12.98624,4.28717 10.16481,5.72645 z m -88.011,-2.70477 c 1.96964,-6.86864 10.55455,-8.10461 15.84396,-11.60039 9.04301,-3.68564 17.1971,-9.79197 27.14819,-10.96043 2.64421,-1.09455 13.56731,-0.2677 5.3575,1.11773 -5.85658,0.55212 -11.61866,1.6476 -16.95418,4.33415 -7.16046,2.02142 -12.85832,7.16946 -19.79753,9.74882 -4.06205,2.16046 -7.69283,4.88778 -11.59794,7.36012 z m 104.89033,-0.86232 c -6.98856,-4.50135 -14.08413,-8.77246 -21.48853,-12.54421 -5.15518,-2.84621 -11.07642,-3.73418 -16.45511,-5.97464 -4.48734,1.01929 -11.15084,-1.26725 -13.37495,-2.97951 5.93888,-1.22525 12.55759,1.41161 18.5432,2.68075 5.27948,2.04084 10.84944,3.78731 15.65447,6.67075 1.43404,2.0875 9.49083,4.94266 4.85848,0.42136 -9.21755,-5.40298 -19.04547,-10.19033 -29.75249,-11.80877 -11.15427,-1.59097 -22.98114,-1.39953 -33.25554,3.72059 -2.7951,0.62946 -9.7521,6.49809 -10.20664,2.2556 4.63215,-2.30734 10.59638,-4.38704 16.24049,-6.04221 10.36663,-3.48732 21.88909,-4.09821 32.32215,-0.56367 10.02264,2.13933 19.29693,6.72711 27.51104,12.7934 1.98836,5.03584 11.69558,7.46583 10.85948,12.35077 l -0.52963,-0.25431 -0.92642,-0.7259 0,0 z m 0.22994,-6.69975 c -5.25648,-4.07686 -10.26221,-8.46339 -16.05631,-11.77887 -7.50103,-5.37515 -16.78139,-6.7389 -25.45825,-9.21002 -6.7188,-1.14447 -13.82992,-2.11604 -20.53637,-0.32308 -6.23891,1.06786 -12.23079,3.71922 -18.52932,4.84936 -4.81224,2.04581 -10.58202,6.9386 -15.04355,6.85338 5.94047,-4.58985 12.56165,-8.54756 20.04302,-10.40288 6.22232,-2.10416 12.75707,-2.08132 18.9785,-4.24319 5.86695,0.62476 12.03664,0.61588 17.81057,2.09508 11.5686,2.41687 22.9097,7.13531 32.3852,14.37827 2.82079,0.31529 11.13099,10.43995 6.47898,7.85361 l -0.0725,-0.0717 c 0,0 0,0 0,0 z m -105.14154,0.68026 c 3.05444,-5.14927 10.30657,-5.24805 14.66918,-8.91949 4.31795,-3.16612 4.91476,1.40008 0.33306,2.05884 -4.78728,2.97909 -10.15109,3.98385 -15.00224,6.86065 z m 3.0574,-5.76873 c -0.15736,-4.05938 4.5303,1.94376 0,0 z m 3.79167,-2.04583 c 1.05013,-3.54611 3.26304,0.79579 0,0 z m -4.80372,-0.9903 c 0.62391,-3.45689 12.4293,-7.54539 5.77456,-2.46353 -1.58288,1.36973 -3.57344,2.69975 -5.77456,2.46353 z m 101.47388,-0.33735 c -5.64981,-1.93419 -9.37727,-7.19377 -15.08963,-9.12849 -9.9946,-5.25566 -21.2781,-7.10854 -32.39767,-8.1779 -7.25511,-2.02145 -13.99235,1.06556 -21.1779,1.22414 -6.26336,1.62584 -12.1507,4.48891 -18.33204,6.37472 -0.31561,-4.35989 9.08082,-3.62759 12.37056,-6.64697 5.05954,-2.33211 11.13395,-0.2731 16.21851,-2.92765 5.42712,-1.26058 10.84941,0.17305 16.21633,0.49828 5.34109,2.70219 11.17805,1.83968 16.81669,3.07184 8.29563,2.52097 16.05964,6.81136 22.53791,12.5159 7.72209,3.56872 -4.57146,-6.16569 -6.77876,-8.13325 -6.15595,-5.48053 -14.49972,-6.87754 -22.16213,-8.83924 -8.57796,0.58135 -17.1426,-4.06364 -25.57335,-0.91487 -2.8007,-1.63373 -11.62921,4.45811 -10.32319,0.35926 6.07084,-2.37691 12.78858,-3.01623 19.26096,-3.14941 6.3855,0.30076 12.27988,3.05573 18.75664,2.62406 9.05797,0.0753 17.2189,4.64183 23.73034,10.62426 2.17909,0.72124 13.76952,12.95905 5.92673,10.62532 z m -99.44979,-5.4819 c 2.63657,-5.82759 15.7971,-5.8201 5.10996,-1.58865 -1.68065,0.60189 -3.41945,1.01783 -5.10996,1.58865 z m 6.66699,-0.13651 c 3.56019,-4.35847 5.74038,2.21631 0,0 z m -7.84771,-2.93662 c 1.77157,-3.92878 3.0544,1.49499 0,0 z m 99.942,-0.92959 c -0.88881,-4.75022 4.57889,1.37347 0,0 z m -96.85526,-0.93942 c 3.3435,-5.55674 11.50946,-6.1527 16.32143,-10.049 0.58926,0.88107 -1.01576,4.26685 -2.26178,5.01897 -4.11696,-0.75895 -10.04849,3.94894 -14.05965,5.03003 z m 93.99675,-0.86545 c -1.88647,-6.05755 -9.33043,-7.00517 -13.72988,-10.66307 -5.40629,-1.58786 -10.52284,-3.81537 -15.57945,-6.27182 -5.65091,-2.12455 -11.79448,-1.75403 -17.67744,-2.81286 -5.79774,0.73866 -11.5865,1.10574 -17.32746,2.67664 -6.76064,1.68819 -13.35682,4.57939 -19.0954,8.3186 -4.13301,-3.37286 7.62059,-5.53058 10.52437,-7.58568 6.4941,-2.12941 12.99618,-4.40964 19.91671,-4.77028 7.02436,-1.10631 13.98598,0.39049 20.878,1.37197 9.56428,3.22127 19.05423,6.96056 27.64821,12.30361 2.41995,0.39562 10.92901,8.05869 4.44234,7.43289 z m -76.49244,-5.26794 c 0.73961,-4.63088 9.17486,-0.59959 2.17668,-0.68631 -0.844,-0.37353 -1.5062,1.74117 -2.17668,0.68631 z m -14.45553,-0.56186 c -1.63792,-5.75738 10.03356,-1.87334 2.11283,-0.7981 -0.62626,0.3584 -1.29325,1.41765 -2.11283,0.7981 z m 16.55112,-3.03724 c 3.06298,-3.91891 9.9905,-5.44552 14.57126,-6.05993 -0.36947,3.58691 -8.21374,2.72386 -11.14602,5.92227 -1.09782,0.3684 -2.30219,0.44299 -3.42524,0.13766 z m 70.70193,-1.84873 c -7.90317,-4.15475 -16.04993,-7.78164 -24.55458,-10.53367 -5.85167,-2.31476 -12.4763,-2.21185 -18.70377,-2.54683 -6.20708,1.08403 -12.66274,-0.0311 -18.66152,1.97814 -3.48827,0.55807 -12.65795,6.59428 -13.11429,2.5858 5.86151,-1.10053 10.62916,-5.56427 16.80874,-5.5819 6.70675,-0.67893 13.44184,-0.8098 20.11081,-1.34547 5.74008,0.43977 11.14004,1.21375 16.30964,3.79661 6.46219,2.17326 12.54205,5.40157 19.11925,7.24173 0.58553,1.09673 8.52231,6.28105 2.68572,4.40559 z m -85.99385,-0.68062 c 0.31843,-4.5265 13.45201,-7.74126 6.06301,-2.52667 -1.90751,1.09357 -3.99192,1.81562 -6.06301,2.52667 z m 62.98661,-0.75595 c -8.15,-1.83882 -16.43992,-3.01784 -24.81042,-2.37208 -2.98217,0.56992 -8.11536,-1.30774 -2.27582,-1.82241 6.87898,-0.32217 13.9442,-0.62931 20.73903,0.62701 1.1196,-0.17064 10.86607,3.82811 6.34721,3.56748 z m 16.5866,-6.91947 c -6.60037,-3.60687 -13.91109,-5.47333 -20.89994,-8.11737 -2.84676,-0.42279 -14.62652,-1.43435 -6.18348,-2.63673 7.41638,0.14782 13.99945,4.19315 21.10405,5.91228 1.66266,-0.0577 13.77856,6.78686 5.97937,4.84182 z m -72.07527,-1.53968 c 2.98718,-4.5363 9.18912,-5.01852 13.65346,-7.48764 6.00727,-0.86883 12.49374,-4.14611 18.09455,-2.92737 -6.63127,3.43009 -13.99815,3.24746 -20.69308,6.00773 -3.62781,1.6104 -7.19253,3.40102 -11.05493,4.40728 z m 30.27805,-6.03725 c 1.49239,-4.19349 4.95367,1.70878 0,0 z m 7.84868,-2.77447 c -0.41797,-1.67601 1.38959,0.4047 0,0 z m -3.17626,-0.74759 c 0.90612,-3.03155 0.99397,2.44649 0,0 z m -0.87473,-2.2931 c 0.16396,-1.40092 1.34134,0.84273 0,0 z"
       id="path2830"
       inkscape:connector-curvature="0" />
  </g>
</svg>
