<?xml version="1.0" encoding="UTF-8" standalone="no"?>
<!-- Created with Inkscape (http://www.inkscape.org/) -->

<svg
   xmlns:dc="http://purl.org/dc/elements/1.1/"
   xmlns:cc="http://creativecommons.org/ns#"
   xmlns:rdf="http://www.w3.org/1999/02/22-rdf-syntax-ns#"
   xmlns:svg="http://www.w3.org/2000/svg"
   xmlns="http://www.w3.org/2000/svg"
   xmlns:sodipodi="http://sodipodi.sourceforge.net/DTD/sodipodi-0.dtd"
   xmlns:inkscape="http://www.inkscape.org/namespaces/inkscape"
   width="24"
   height="24.001135"
   id="svg2"
   version="1.1"
   inkscape:version="0.48.4 r9939"
   sodipodi:docname="logo.svg"
   inkscape:output_extension="org.inkscape.output.svg.inkscape">
  <defs
     id="defs4">
    <inkscape:perspective
       sodipodi:type="inkscape:persp3d"
       inkscape:vp_x="0 : 526.18109 : 1"
       inkscape:vp_y="0 : 1000 : 0"
       inkscape:vp_z="744.09448 : 526.18109 : 1"
       inkscape:persp3d-origin="372.04724 : 350.78739 : 1"
       id="perspective10" />
    <inkscape:perspective
       id="perspective2824"
       inkscape:persp3d-origin="0.5 : 0.33333333 : 1"
       inkscape:vp_z="1 : 0.5 : 1"
       inkscape:vp_y="0 : 1000 : 0"
       inkscape:vp_x="0 : 0.5 : 1"
       sodipodi:type="inkscape:persp3d" />
  </defs>
  <sodipodi:namedview
     id="base"
     pagecolor="#ffffff"
     bordercolor="#666666"
     borderopacity="1.0"
     inkscape:pageopacity="0.0"
     inkscape:pageshadow="2"
     inkscape:zoom="1"
     inkscape:cx="-70.667644"
     inkscape:cy="31.415418"
     inkscape:document-units="px"
     inkscape:current-layer="layer1"
     showgrid="false"
     inkscape:window-width="1680"
     inkscape:window-height="1026"
     inkscape:window-x="0"
     inkscape:window-y="24"
     inkscape:window-maximized="1"
     fit-margin-top="0"
     fit-margin-left="0"
     fit-margin-right="0"
     fit-margin-bottom="0" />
  <metadata
     id="metadata7">
    <rdf:RDF>
      <cc:Work
         rdf:about="">
        <dc:format>image/svg+xml</dc:format>
        <dc:type
           rdf:resource="http://purl.org/dc/dcmitype/StillImage" />
        <dc:title />
      </cc:Work>
    </rdf:RDF>
  </metadata>
  <g
     inkscape:label="Capa 1"
     inkscape:groupmode="layer"
     id="layer1"
     transform="translate(-230.01726,-215.49118)">
    <path
       style="fill:#000000"
       d="m 75.875,66 c -0.197156,0.07394 -0.398149,0.141391 -0.59375,0.21875 -0.437211,0.213819 -0.853752,0.455895 -1.28125,0.6875 l 0,1.25 C 75.531558,67.334928 77.139465,66.625189 78.78125,66 L 75.875,66 z m 6.5625,0 c -0.783691,0.182015 -1.49338,0.441633 -1.90625,0.8125 C 78.508218,67.960332 76.071656,68.531665 74,69.65625 l 0,1.28125 c 3.534491,-1.552653 6.858291,-3.693496 10.78125,-4.125 1.576375,-0.333064 2.112239,-0.614832 2.0625,-0.8125 l -4.40625,0 z m 11.65625,0 C 95.473649,66.378591 96.76292,67.002986 98,67.75 L 98,66 c -0.0084,-0.0039 -0.02279,0.0039 -0.03125,0 l -3.875,0 z m -2.875,0.625 C 86.20105,67.54103 81.09133,68.6439 76.6875,71.34375 76.028361,72.856983 74.873006,72.800341 74,72.875 l 0,2.3125 C 76.850575,72.281923 80.535391,70.236672 84.53125,69.21875 89.026352,67.103603 94.05154,68.510216 98,71.0625 l 0,-1.4375 c -2.061283,-1.354368 -4.295525,-2.412982 -6.78125,-3 z M 89.9375,69.40625 C 84.30949,69.93662 78.35954,72.04094 74.84375,76.6875 74.460814,76.97592 74.191917,77.262141 74,77.53125 L 74,79 c 0.433273,0.169688 1.197439,-0.144961 1.90625,-1.34375 C 78.41709,73.56109 83.56341,71.31376 88.1875,70.5 92.19847,70.047972 95.328015,72.479493 98,75.15625 l 0,-2.125 c -2.332298,-1.841742 -5.03176,-3.173911 -8.0625,-3.625 z M 88.96875,71.875 c -2.630509,0.06179 -5.326219,1.258962 -7.65625,2.4375 -2.964374,2.018763 -5.475972,4.765481 -7.3125,7.90625 l 0,2.40625 c 0.270995,-0.490268 0.57157,-0.969415 0.9375,-1.40625 1.82934,-3.07584 4.06791,-6.41489 7.375,-7.9375 2.92797,-1.82436 6.71596,-2.82773 9.9375,-1.34375 3.37431,1.78436 0.21247,0.88865 -1.46875,0.96875 2.204855,1.032198 5.156646,2.604058 7.21875,4.75 l 0,-2.5 C 96.840289,75.539672 94.856876,73.889775 93.53125,73.21875 92.083757,72.18882 90.547056,71.837929 88.96875,71.875 z M 86.9375,75 c -0.495895,-0.01319 -1.002315,0.03486 -1.53125,0.15625 -4.06471,1.73588 -8.18473,5.21044 -9.1875,9.6875 1.53197,-0.04431 4.43365,-5.96393 7.5,-7.25 3.55121,-3.54534 7.98638,0.92863 11.03125,2.96875 1.32587,1.418347 2.339717,3.056275 3.25,4.75 l 0,-3.09375 C 97.40891,81.365367 96.794474,80.55987 96.09375,79.78125 93.148316,78.180823 90.408762,75.09232 86.9375,75 z m 0.21875,2.84375 c -1.152784,0.02824 -3.08726,0.56225 -3.65625,1.6875 0.04928,1.62444 2.04726,-0.06186 2.6875,-0.28125 2.494495,-0.932065 2.121534,-1.434494 0.96875,-1.40625 z M 89.4375,79.375 c -3.083199,0.140639 -6.010623,3.150519 -6.90625,5.9375 -0.339712,1.543926 -0.478561,3.115798 -0.5,4.6875 l 1.34375,0 c -0.05156,-3.259484 0.469595,-6.453744 3.4375,-8.3125 4.48937,-2.97818 7.64935,3.32642 9.59375,6.53125 0.158782,0.615043 0.354184,1.194962 0.5625,1.78125 L 98,90 98,88.65625 c -1.618771,-3.336895 -3.499221,-6.534585 -6.4375,-8.875 -0.706151,-0.311839 -1.413493,-0.438705 -2.125,-0.40625 z m -7.03125,1.5625 c -0.958868,-0.106074 -3.445365,4.941651 -2.21875,6.53125 1.31778,-1.5895 1.50718,-3.80252 2.59375,-5.53125 0.0068,-0.677421 -0.153723,-0.975521 -0.375,-1 z m 6.5625,1.71875 C 86.09529,82.720519 84.836356,86.722314 84.8125,90 l 1.28125,0 c -0.09679,-1.19485 -0.05688,-2.422436 0.25,-3.65625 2.103136,-5.665456 6.874886,0.07026 7.46875,3.65625 l 1.53125,0 c -0.954531,-2.496529 -1.985889,-4.941766 -4.125,-6.71875 -0.834995,-0.459294 -1.589696,-0.639769 -2.25,-0.625 z M 78.3125,83.5625 c -0.11562,0.0075 -0.140825,0.227773 0.09375,0.875 1.53219,1.093125 0.253111,-0.897464 -0.09375,-0.875 z m -0.34375,2.5 C 77.614998,85.975253 77.117963,88.353617 77.03125,90 l 1.03125,0 c 0.129815,-0.840343 0.171732,-1.833517 0.25,-2.15625 -0.04778,-1.241788 -0.189961,-1.74332 -0.34375,-1.78125 z m 9.96875,0.25 c -0.09996,0.03194 -0.225332,0.09974 -0.34375,0.1875 -0.02641,1.161225 0.03801,2.337618 0.15625,3.5 l 1.53125,0 C 89.033579,88.129163 88.896215,86.006151 87.9375,86.3125 z m 2.375,0 c -0.485114,0.05904 -0.619756,1.473319 0.40625,2.875 0.8954,1.17771 1.08563,-0.75358 0.6875,-1.1875 -0.392606,-1.267399 -0.802682,-1.722923 -1.09375,-1.6875 z m -14.5,0.25 C 75.351628,86.686995 74.436079,87.981142 74,89.34375 L 74,90 l 1.4375,0 c 0.07775,-0.452281 0.177071,-0.871746 0.28125,-1.3125 0.521325,-1.647666 0.43594,-2.217436 0.09375,-2.125 z"
       transform="translate(156.01726,149.49232)"
       id="path2830"
       inkscape:connector-curvature="0" />
  </g>
</svg>
